<?xml version="1.0" encoding="utf-8"?>
<!-- Generator: Adobe Illustrator 26.0.1, SVG Export Plug-In . SVG Version: 6.00 Build 0)  -->
<svg version="1.1" id="Camada_1" xmlns="http://www.w3.org/2000/svg" xmlns:xlink="http://www.w3.org/1999/xlink" x="0px" y="0px"
	 viewBox="0 0 1382.4 1415.5" style="enable-background:new 0 0 1382.4 1415.5;" xml:space="preserve">
<style type="text/css">
	.st0{fill:#E6AC49;}
	.st1{fill:#0CA7A5;}
	.st2{fill:#E7AD4A;}
	.st3{fill:#FEFEFE;}
	.st4{fill:#0C94AD;}
</style>
<g id="backgroundConteudo_Imagem">
	<path d="M587.2,524.8c-20-11.4-39.8-23-59.8-34.5l-56-32.4c-21.6-12.5-43.2-24.9-64.8-37.4c-18.7-10.8-37.3-21.6-56-32.4
		c-20-11.6-40-23.1-60-34.7c-17.3-10-34.6-20-51.9-30c-19.6-11.3-39.2-22.7-58.8-34c-36.7-21.3-73.4-42.5-110.1-63.7
		c-22-12.7-44-25.4-66-38.1c-1.7-1-2.5-2.4-3.6-3.8C0.1,123.5,0,62.9,0,2.3C0-0.3,0.5-1,3.3-1c459.4,0.1,918.8,0.1,1378.2,0.1
		c0.7,1.5,0.3,3.1,0.3,4.6c0,325.5,0,651,0,976.5c0.1,2.8-1.4,2.1-3,1.5c-5.6-2-10.4-5.4-15.5-8.3c-19.8-11.4-39.6-22.9-59.4-34.3
		c-17.6-10.2-35.3-20.4-52.9-30.6c-22.7-13.1-45.4-26.2-68.1-39.4c-19-11-37.9-22-56.9-32.9c-19.6-11.3-39.2-22.7-58.8-34
		c-20.5-11.8-41.1-23.6-61.6-35.6"/>
	<path d="M619.6,539.4"/>
	<path class="st0" d="M245.9,980.8c374.4,0,748.8,0,1123.2,0c4.2,0,8.4,0,12.4,1.6c0.6,1.2,0.3,2.6,0.3,3.9c0,141.4,0,282.9,0,424.3
		c0,1.2,0.3,2.6-0.3,3.8c-459.3,0-918.6,0-1377.9,0.1c-3.2,0-3.6-0.9-3.6-3.8c0.1-101.5,0.1-203,0.1-304.5c1.1-4.1,5.1-4.9,8-6.7
		c10.2-6.3,20.8-11.8,31-18c9-5.4,18.3-10.4,27.4-15.8c11.8-6.9,23.8-13.3,35.5-20.4c14.5-8.7,29.2-16.9,43.8-25.5
		c15.5-9.1,31-18.2,46.7-26.9c5.8-3.2,11.2-7.4,17.6-9.7c1.1-0.4,1.6-1.4,2.4-2.1"/>
	<path class="st1" d="M475,463.2c9.4,5.2,18.8,10.6,28.3,15.6c2.3,1,3.8,3.3,3.8,5.8c0,1.9,0.1,3.8,0.1,5.8
		c0,109.4,0,218.8,0.1,328.3c0,6.7-2,10.5-8.3,13.9c-30.1,16.2-59.9,33.1-89.8,49.6c-25.8,14.3-51.6,28.6-77.3,42.9
		c-23.9,13.3-47.9,26.6-71.9,39.7c-4.2,2.2-8.2,4.6-12.4,6.8c-1.5,0.8-2.9,1.5-4.6,0.8c-5.3,2-9.9,5.3-14.9,7.9
		c-1.7,0.9-3.3,2.2-5.4,2.4c-3.1,1.1-6.3,1.6-9.6,1.6c-68.7,0-137.3,0-206,0c-2.4,0-5.1,0.5-7-1.7l0-789.8"/>
	<path class="st1" d="M244.3,335.7"/>
	<path class="st1" d="M606.1,544.7"/>
	<path class="st1" d="M1043.7,786.8c111.9,64.7,223.8,129.3,335.8,194c0.6,0.4,1.3,0.7,1.9,1c0.2,0.2,0.3,0.3,0.2,0.5
		s-0.1,0.2-0.2,0.2H367c-43,0-86.1,0-129.1,0c-1.3,0-31.5,0.7-32.6-0.7c-0.2-1.9,28.6-8.4,30-9.2c17.8-10.8,37.2-15.1,55.2-25.7
		c17.4-10.2,34.9-20.2,52.3-30.2c21-12.2,42.1-24.4,63.2-36.5c22.7-13.1,45.4-26.3,68.2-39.3c4.4-2.5,8.6-5.2,13-7.6
		c2.2-1.1,3.6-3.4,3.3-5.9c-0.1-1.4,0-2.9,0-4.3V486.9c-0.1-1-0.1-1.9,0-2.9c0.4-4-1.2-6.6-4.8-8.8c-16.6-9.6-33.3-19-49.8-28.7
		c-21.6-12.6-43.4-25.1-65-37.6c-23.2-13.5-46.4-26.9-69.7-40.3c-19.9-11.5-39.9-22.9-59.7-34.6c-14-8.3-28.3-16.1-42.4-24.4
		c-21.5-12.5-43.2-24.9-64.7-37.5c-18.3-10.6-36.7-21.4-55.1-31.8c-14.5-8.2-28.7-17-43.1-25.3c-9.6-5.6-19.2-11.2-29-16.7
		c-2.7-1.5-5.5-3-7.2-5.8v-8.6c10,5.7,20,11.3,29.9,17l570.6,329.6"/>
	<path class="st2" d="M0.1,982.5h240.8c1.8,0,3.6,0.1,5.4,0.1c-5,3.6-11.1,5.8-16.6,8.7c-10.9,5.8-22.3,11.1-33.4,16.7
		c-18,9-35.9,18-53.8,27c-17.4,8.7-34.7,17.3-52.1,26c-14.6,7.3-29.4,14.2-43.8,21.9c-10.7,5.7-22,10.5-32.5,16.5
		c-4.5,2.6-9.3,4.6-14,6.9L0.1,982.5z"/>
	<path class="st3" d="M1381.4,982.5c0-0.2,0-0.5,0-0.7c0-1.6,0.1-3.1,0.1-4.7c0-326,0-652,0-978c0.2,0.2,0.8-0.4,0.7,0.4
		c0,1,0,1.9,0,2.9c0,469.6,0,939.3,0,1408.9c0,1,0.8,2.4-0.7,3.2c0-142.4,0-284.9,0-427.3C1381.5,985.6,1381.4,984,1381.4,982.5z"/>
	<path class="st4" d="M996.6,754.6"/>
</g>
</svg>
