<svg xmlns="http://www.w3.org/2000/svg" viewBox="0 0 1382.4 1415.52"><defs><style>.cls-1{fill:#e6ac49;}.cls-2{fill:#0ca7a5;}.cls-3{fill:#e7ad4a;}.cls-4{fill:#fefefe;}.cls-5{fill:#0c88b2;}.cls-6{fill:#0c94ad;}</style></defs><g id="Camada_2" data-name="Camada 2"><g id="backgroundConteudo_Imagem" data-name="backgroundConteudo Imagem"><path d="M.07,185.09Q.07,94.22,0,3.35C0,.73.47,0,3.26,0Q692.38.12,1381.5.07c.71,1.49.34,3.08.34,4.61q0,488.25,0,976.48c.13,2.77-1.43,2.1-3,1.52-5.58-2-10.41-5.4-15.49-8.32q-29.73-17.13-59.44-34.31-26.45-15.3-52.9-30.56-34.07-19.69-68.14-39.37-28.44-16.5-56.92-32.93-29.39-17-58.82-34c-20.54-11.85-41.12-23.64-61.59-35.63-3.39-2-7-3.6-9.79-6.57a4.83,4.83,0,0,1-.23-1.26c-.08-52.38,0-104.75,0-157.12,0-10,.58-20.12-1-30.11.85-9.34.29-18.7.32-28,0-2.57-1.45-4-4-4.12-2-.14-4.07-.08-6.11-.08q-182.55,0-365.11.06c-5.35,0-10.23-.66-14.31-4.36-6.4-2.74-12.14-6.71-18.16-10.15-20-11.4-39.84-23-59.75-34.46l-56-32.36Q439,440.35,406.6,421.64q-28-16.17-56-32.37-30-17.37-60.05-34.67-26-15-51.94-30-29.38-17-58.77-34-55-31.89-110.13-63.66-33-19.08-66-38.06C2.06,187.91,1.17,186.47.07,185.09Z"/><path class="cls-1" d="M1381.5,1415.43q-688.95,0-1377.9.09c-3.22,0-3.6-.89-3.6-3.76q.12-152.22.07-304.46c1.06-4.1,5.06-4.9,8-6.7,10.17-6.29,20.78-11.83,31-18,9-5.45,18.29-10.43,27.37-15.77,11.78-6.92,23.83-13.35,35.52-20.4,14.47-8.72,29.25-16.88,43.79-25.47,15.47-9.12,31-18.16,46.7-26.89,5.83-3.24,11.19-7.36,17.55-9.65,1.05-.38,1.62-1.39,2.42-2.11,5.42-2.64,10.5-5.92,15.8-8.79,1.41-.76,2.74-1.42,4.31-.56,1.59,3.35,1.15,4.65-3.42,9.15,2.46-.37,4.5-1.28,6.41,0,3.48.1,6.92-.31,10.39-.31q561.62,0,1123.23,0c4.21,0,8.4,0,12.39,1.61.61,1.25.31,2.59.31,3.89q0,212.15,0,424.29C1381.84,1412.84,1382.17,1414.18,1381.5,1415.43Z"/><path class="cls-2" d="M232.44,973.33c-5.09,2-9.51,5.29-14.3,7.86-1.67.89-3.15,2.16-5.12,2.4a24.82,24.82,0,0,1-9.15,1.6q-98.55,0-197.1,0c-2.33,0-4.88.51-6.7-1.68V203.81C2.42,202.38,4.23,204,6,205c14.44,8.56,29,16.86,43.55,25.23q26,15,52,30c20.53,11.9,41.18,23.59,61.65,35.58q35.21,20.63,70.63,40.87,34.47,19.74,68.81,39.71,39.66,23,79.33,45.93,36.25,21,72.51,41.92c9,5.21,18,10.57,27.09,15.64a6.24,6.24,0,0,1,3.59,5.76c0,1.92.06,3.84.06,5.76q0,164.13.14,328.27c0,6.7-1.9,10.53-7.9,13.91-28.82,16.23-57.29,33.07-85.94,49.6q-37,21.39-74,42.89c-22.91,13.28-45.81,26.58-68.82,39.69-4,2.25-7.85,4.62-11.86,6.78C235.4,973.34,234.08,974.07,232.44,973.33Z"/><path class="cls-2" d="M1381.39,983.47H367q-64.56,0-129.13,0c-1.34,0-2.88.66-4-.69-.18-1.93,1.22-2.7,2.57-3.52,17.83-10.81,36.1-20.85,54.06-31.42,17.35-10.21,34.86-20.15,52.26-30.25q31.55-18.31,63.21-36.45c22.74-13.08,45.42-26.28,68.21-39.28,4.37-2.49,8.62-5.19,13-7.61a5.85,5.85,0,0,0,3.31-5.88c-.08-1.43,0-2.88,0-4.32V487.88a27.46,27.46,0,0,1,0-2.87c.43-4-1.16-6.65-4.77-8.75-16.57-9.65-33.29-19-49.83-28.71-21.61-12.65-43.35-25.08-65-37.65q-34.81-20.2-69.71-40.27c-19.93-11.48-39.89-22.91-59.71-34.58-14-8.27-28.3-16.15-42.38-24.35-21.53-12.55-43.16-24.93-64.7-37.45-18.34-10.65-36.65-21.36-55.1-31.82-14.48-8.22-28.65-17-43.07-25.29-9.65-5.57-19.24-11.25-29-16.66-2.71-1.5-5.5-3-7.22-5.75v-8.64c10,5.67,20,11.26,29.93,17L600.58,531.74c1.34.78,2.61,1.66,3.91,2.49a7.11,7.11,0,0,1,1.61,4.66c.08,2.28,0,4.56,0,6.84q0,159.76,0,319.53c0,9.23,0,9.23,9.16,9.23H985.74c9.11,0,9.11,0,9.11-9.27,0-32.51,0-65,.06-97.52,0-2.36-.88-5.14,1.79-6.88,15.68,9,31.38,17.9,47,26.94q167.88,97,335.75,194c.62.36,1.27.65,1.91,1,.25.16.33.32.25.49S1381.47,983.47,1381.39,983.47Z"/><path class="cls-3" d="M.07,983.48H208.35c1.56,0,3.11.07,4.67.11-4.36,3.61-9.58,5.79-14.35,8.72-9.47,5.82-19.25,11.12-28.88,16.68q-23.29,13.46-46.57,27-22.53,13-45.08,26c-12.63,7.28-25.46,14.25-37.85,21.92-9.26,5.72-19,10.49-28.13,16.5-3.87,2.56-8,4.64-12.09,6.94Z"/><path class="cls-3" d="M.07,193.73c7.33,3.26,14.06,7.62,21,11.62q95.88,55.58,191.7,111.21,110.51,64,221.09,127.82Q460.89,460,488,475.6a7.34,7.34,0,0,1,4.18,7.14q-.18,173.44-.07,346.9c0,3.52-1.76,4.84-4.21,6.25q-31.28,18-62.55,36-58,33.51-116,67-33.45,19.32-66.92,38.59c-2.88,1.67-5.7,3.47-8.55,5.2a7.8,7.8,0,0,0-4.25,1.63c-.74.49-1.63,1.35-2.51.36A2.53,2.53,0,0,1,227,982a3.94,3.94,0,0,1,1.46-1.95c2.74-1.47,3.57-4,4-6.75q15.83-9.2,31.63-18.39l141.47-81.89c24.57-14.2,49.11-28.45,73.78-42.47,3.41-1.94,4.44-4.08,4.44-7.87q-.15-168.24,0-336.47c0-2.69-1.14-3.77-3.14-4.93q-107.33-62-214.61-124c-17.41-10.06-34.95-19.91-52.31-30.05-52.84-30.83-105.92-61.24-158.82-92C36.66,224.7,18.34,214.3.07,203.81Z"/><path class="cls-4" d="M1381.39,983.47c0-.25,0-.5,0-.74,0-1.56.11-3.12.11-4.67q0-489,0-978c.22.16.75-.36.72.36,0,1,0,1.92,0,2.88q0,704.45,0,1408.88c0,1,.83,2.44-.67,3.24q0-213.65,0-427.29C1381.49,986.58,1381.42,985,1381.39,983.47Z"/><path class="cls-5" d="M996.7,760.82q-.06,28.6-.13,57.21c0,17.87-.1,35.74.07,53.61,0,3.72-1.2,4.64-4.76,4.64q-191.31-.12-382.64,0c-3,0-4.87-.21-4.87-4.13q.15-168.58.1-337.17c0-.24,0-.48,0-.72,6.11,4.77,13.25,4.39,20.46,4.39q183.4-.11,366.82,0c5.53,0,4.77-.73,4.78,4.72,0,9.71-.06,19.42-.1,29.14a9.92,9.92,0,0,0-.23,3.56q0,90.62,0,181.22c0,1.27-.46,2.64.45,3.81Z"/><path class="cls-6" d="M996.68,761c-1-1.22-.83-2.7-.83-4.13V576.29c0-1.31-.15-2.65.6-3.85,0,1.55.11,3.11.11,4.67q0,89.26,0,178.53C996.57,757.44,996.64,759.24,996.68,761Z"/></g></g></svg>