<svg xmlns="http://www.w3.org/2000/svg" viewBox="0 0 133.8 133.59"><defs><style>.cls-1{fill:#010002;}</style></defs><g id="Camada_2" data-name="Camada 2"><g id="Camada_1-2" data-name="Camada 1"><path class="cls-1" d="M133.46,72.71a64.82,64.82,0,0,1-1,9.86A67.54,67.54,0,0,1,93.18,129a60.29,60.29,0,0,1-16.83,4.58c-1.31.14-1.51-.08-1.58-1.39,0-.43,0-.87,0-1.3V83.3c0-2.63.15-2.77,2.84-2.77h11.5c1.8,0,1.84,0,2.07-1.73.65-4.88,1.26-9.76,1.9-14.64.17-1.36.11-1.43-1.25-1.43H76.52c-1.48-.05-1.74-.29-1.76-1.79,0-3.57,0-7.14,0-10.72a13.19,13.19,0,0,1,.19-2.34c.75-4.39,3.25-6.5,7.73-6.83,3.17-.23,6.34-.2,9.52-.23,1.55,0,1.64-.09,1.64-1.62q0-6.34,0-12.68c0-1.56,0-1.52-1.59-1.71a85.09,85.09,0,0,0-14.09-.46c-9.07.42-16,4.31-19.83,12.9a26.09,26.09,0,0,0-1.91,8.37c-.45,5-.16,9.92-.25,14.88,0,2.07-.17,2.23-2.24,2.23h-12c-1.61,0-1.68.07-1.68,1.71q0,7.18,0,14.37c0,1.67.07,1.72,1.8,1.72h12c1.9,0,2.1.2,2.1,2.09q0,24.24,0,48.48c0,2.05-.24,2.27-2.33,1.85a66.71,66.71,0,0,1-18.13-6.49,68.37,68.37,0,0,1-16.24-12,66.57,66.57,0,0,1-14.68-22A58.28,58.28,0,0,1,.09,71.56C0,66.34-.18,61.12.69,55.94A65.93,65.93,0,0,1,13.88,25.87,66.45,66.45,0,0,1,46.18,3.1,60.59,60.59,0,0,1,63,.08C71.78-.26,80.43.42,88.81,3.4A67.79,67.79,0,0,1,132,49.62a72,72,0,0,1,1.78,14.95"/></g></g></svg>