<svg xmlns="http://www.w3.org/2000/svg" viewBox="0 0 499.82 432.77"><g id="Camada_2" data-name="Camada 2"><g id="Camada_1-2" data-name="Camada 1"><path d="M374.87,432.77q61-105.66,122-211.3c.9-1.57,1.94-3.06,2.92-4.59v-1q-20-34.42-40-68.84Q417.29,73.55,374.87,0H125Q64.06,105.44,3.15,210.86c-1,1.71-2.1,3.35-3.15,5v1q22,37.88,44,75.74,40.52,70,80.95,140.15H374.87Zm-10.44-25.39c-1.56,2.71-3.24,3.48-6.23,3.47-36.15-.11-72.29-.07-108.43-.07-36,0-72,0-107.93.08-3.19,0-5-.85-6.61-3.71q-53.89-93.72-108-187.28c-1.7-3-1.66-5.08,0-8q54.14-93.57,108-187.28c1.66-2.9,3.47-3.67,6.63-3.67q108.18.13,216.35,0c3,0,4.67.82,6.21,3.5q54,93.93,108.32,187.71c1.63,2.81,1.58,4.77,0,7.55Q418.46,313.46,364.43,407.38Z"/></g></g></svg>