<?xml version="1.0" encoding="utf-8"?>
<!-- Generator: Adobe Illustrator 26.0.1, SVG Export Plug-In . SVG Version: 6.00 Build 0)  -->
<svg version="1.2" baseProfile="tiny" id="Camada_1"
	 xmlns="http://www.w3.org/2000/svg" xmlns:xlink="http://www.w3.org/1999/xlink" x="0px" y="0px" viewBox="0 0 2229.6 2574.5"
	 overflow="visible" xml:space="preserve">
<polygon points="0,643.6 0,1930.9 1114.8,2574.5 2229.6,1930.9 2229.6,643.6 1114.8,0 "/>
<path fill="#E6AC49" d="M1116.3,203.4l37.7,23.7c65,38,130.4,75.4,195.6,113c76.9,44.3,153.7,88.6,230.6,132.9
	c112.4,64.9,224.8,129.7,337.2,194.6c38.9,22.4,125,70.2,125,70.2v27.3c0,0-22.3-10.2-31.7-15.6
	c-113.6-65.5-227.1-131.2-340.6-196.9c-103.5-59.8-206.9-119.6-310.5-179.2c-79.8-46-159.5-92-239.3-138c-5.3-3-8.5-2.9-13.8,0.2
	c-94.7,55-189.5,109.9-284.4,164.6C706,467.4,589.8,534.5,473.5,601.5c-84.2,48.6-178.6,100.6-262.9,149v14.6
	c0.4,67,0,212.2,0,212.2l-24.3,0.1c0,0,0-157-0.3-232.3c0-6.3,3.7-8.5,7.7-10.8c47.4-27.5,94.9-54.9,142.4-82.3
	c61.1-35.2,122.3-70.4,183.5-105.5c99.6-57.5,199.2-115,298.8-172.6c75.6-43.6,151.2-87.2,226.8-130.8L1116.3,203.4z"/>
<path fill="#E6AC49" d="M2018.3,1797.4c-0.3-72.2,0.1-166-0.5-238.2l12.1-0.4c0.3,0,12.4,0,12.4,0c-0.6,77.4-0.4,174.4-0.1,251.8
	c0,0-2.2,1.5-7.8,4.7c-88.1,50.8-176.2,101.6-264.2,152.5c-115.9,66.8-231.9,133.6-347.9,200.3c-100.8,58.1-201.6,116.3-302.4,174.6
	c-5.6,3.2-8.8,2.3-13.7-0.6c-90-52.4-180.1-104.6-270.2-156.7c-127.2-73.5-254.4-147-381.6-220.4c-83.6-48.3-167.2-96.7-250.8-145.1
	c-5-2.9-13.6-8.7-13.6-8.7V1785c0,0,45.3,25.8,67.9,38.7c81.3,46.7,162.6,93.6,243.8,140.7c88.3,51.1,176.6,102.1,264.9,153.2
	c105.2,60.8,210.4,121.7,315.6,182.5l32.4,17.9l22.7-12.9c91.3-53.4,183.2-105.8,274.8-158.7c115.9-67,231.8-134,347.6-201.1"/>
<polyline fill="#E6AC49" points="2017.8,1559.2 2017.8,737.8 2042.3,737.8 2042.3,1558.8 "/>
<g>
	<g>
		<path fill="#E6AC49" d="M1114.8,888.6l-164.2,135.3c0,0.2,0,0.5-0.1,0.9s-0.1,0.7-0.1,0.9v137c0,4.9,1.8,9.2,5.4,12.8
			c3.6,3.6,7.9,5.4,12.8,5.4h109.6v-109.6h73.1v109.6H1261c4.9,0,9.2-1.8,12.8-5.4c3.6-3.6,5.4-7.9,5.4-12.8v-137
			c0-0.8-0.1-1.3-0.3-1.7L1114.8,888.6z"/>
		<path fill="#E6AC49" d="M1341.8,993.1l-62.5-52V824.6c0-2.7-0.9-4.9-2.6-6.6c-1.7-1.7-3.9-2.6-6.6-2.6h-54.8
			c-2.7,0-4.9,0.9-6.6,2.6c-1.7,1.7-2.6,3.9-2.6,6.6v55.7l-69.7-58.2c-6.1-4.9-13.3-7.4-21.7-7.4c-8.4,0-15.6,2.5-21.7,7.4
			l-205.3,171c-1.9,1.5-2.9,3.6-3.1,6.1c-0.2,2.6,0.5,4.8,2,6.7l17.7,21.1c1.5,1.7,3.5,2.8,6,3.1c2.3,0.2,4.6-0.5,6.9-2l197.6-164.7
			l197.6,164.7c1.5,1.3,3.5,2,6,2h0.9c2.5-0.4,4.5-1.4,6-3.1l17.7-21.1c1.5-1.9,2.2-4.1,2-6.7
			C1344.7,996.6,1343.7,994.6,1341.8,993.1z"/>
	</g>
</g>
<g>
	<path fill="#E6AC49" d="M928.1,1524.9v160.3h-20.9v-72.7h-81.6v72.7h-20.9v-160.3h20.9v70.4h81.6v-70.4H928.1z"/>
	<path fill="#E6AC49" d="M995.7,1676.4c-12.3-7-22-16.7-29.1-29.2s-10.7-26.6-10.7-42.2s3.6-29.7,10.7-42.2
		c7.1-12.5,16.8-22.2,29.1-29.2s25.8-10.5,40.7-10.5c15,0,28.7,3.5,40.9,10.5c12.3,7,21.9,16.7,29,29.1s10.6,26.5,10.6,42.3
		s-3.5,29.9-10.6,42.3s-16.7,22.1-29,29.1s-25.9,10.5-40.9,10.5C1021.5,1686.8,1007.9,1683.3,995.7,1676.4z M1066.6,1660.8
		c9-5.2,16-12.7,21.2-22.3c5.1-9.7,7.7-20.9,7.7-33.6c0-12.9-2.6-24.1-7.7-33.7s-12.2-17-21-22.2c-8.9-5.2-19-7.8-30.4-7.8
		c-11.3,0-21.5,2.6-30.4,7.8c-8.9,5.2-15.9,12.6-21,22.2s-7.7,20.8-7.7,33.7c0,12.7,2.6,23.9,7.7,33.6c5.1,9.7,12.2,17.1,21.2,22.3
		c9,5.2,19.1,7.8,30.2,7.8C1047.6,1668.6,1057.7,1666,1066.6,1660.8z"/>
	<path fill="#E6AC49" d="M1307.1,1526v159.2h-20.9v-118.7l-52.9,118.7h-14.7l-53.1-118.9v118.9h-20.9V1526h22.5l58.9,131.6
		l58.9-131.6H1307.1z"/>
	<path fill="#E6AC49" d="M1363.4,1541.9v53.6h58.4v17.2h-58.4v55.2h65.3v17.2h-86.2v-160.5h86.2v17.2h-65.3V1541.9z"/>
</g>
<polyline fill="#E6AC49" points="210.6,977.3 210.9,1824.1 186.3,1811.1 186.3,977.4 "/>
</svg>
