<svg xmlns="http://www.w3.org/2000/svg" viewBox="0 0 135.02 134.98"><defs><style>.cls-1{fill:#7c7c7c;}.cls-2{fill:#5c5c5c;}.cls-3{fill:#505050;}.cls-4{fill:#696969;}.cls-5{fill:#828282;}</style></defs><g id="Camada_2" data-name="Camada 2"><g id="Camada_1-2" data-name="Camada 1"><path d="M135,33.51c-.71-1.74-.66-3.64-1.18-5.43q-6.09-21.16-27.34-27a34.78,34.78,0,0,0-9.26-1C77.41,0,57.61-.07,37.78.08,23.17.18,12.08,6.75,4.71,19.37A35.57,35.57,0,0,0,.07,37.51c0,20-.2,40,.06,60,.21,16.09,8,27.59,22.52,34.48a34.43,34.43,0,0,0,9.85,2.72c.25,0,.58-.07.73.24h1.12c.16-.39.49-.19.75-.19h0c.22,0,.42,0,.54.2H99.18c.11-.23.3-.25.52-.21h.52c.19,0,.39-.06.48.14a.27.27,0,0,1,.08.07h.49a.52.52,0,0,1,.35-.14h.21c1.68-.48,3.44-.53,5.12-1,14.09-4.06,23-13.16,27-27.26.44-1.57.32-3.24,1.05-4.73v-1.06c-.43-.15-.21-.49-.21-.77,0,0,0,0,.06-.06h-.06c0-.23,0-.44.21-.54V35.62h0c-.21-.09-.21-.3-.21-.53s-.22-.62.21-.78v.06s0,0,0,0v-.79s0-.08,0-.12Zm-12,34V96.9a25.27,25.27,0,0,1-4.71,15.45A24.92,24.92,0,0,1,97.23,123q-29.7.06-59.41,0a25.11,25.11,0,0,1-24.43-17.19A26,26,0,0,1,12,97V38c0-11.6,6.52-20.86,17.25-24.65A26.35,26.35,0,0,1,38.1,12H97c11.63,0,20.86,6.46,24.69,17.2A26.79,26.79,0,0,1,123,38.3Q123.07,52.9,123,67.52Z"/><path class="cls-1" d="M134.78,35.08H135V34.3C134.56,34.46,134.78,34.8,134.78,35.08Z"/><path class="cls-1" d="M134.79,100c0,.28-.22.62.21.77V100a.11.11,0,0,0-.06-.06h-.09S134.81,99.94,134.79,100Z"/><path class="cls-1" d="M35.1,134.76c-.26,0-.59-.2-.75.19l0,0h.79a.74.74,0,0,0,0-.21Z"/><path class="cls-2" d="M135,35.61h0v-.52h-.21C134.78,35.31,134.78,35.52,135,35.61Z"/><path class="cls-2" d="M134.79,99.92H135v-.54C134.79,99.48,134.79,99.69,134.79,99.92Z"/><path class="cls-2" d="M35.12,134.76h0a.74.74,0,0,1,0,.21h.55v0C35.54,134.76,35.34,134.76,35.12,134.76Z"/><path class="cls-3" d="M99.7,134.75c-.22,0-.41,0-.52.21l0,0h.53v-.23Z"/><path class="cls-4" d="M99.7,134.75h0V135h.53a.81.81,0,0,1,0-.22Z"/><path class="cls-5" d="M100.22,134.75a.81.81,0,0,0,0,.22h.51a.24.24,0,0,0,0-.09C100.61,134.69,100.41,134.75,100.22,134.75Z"/><path d="M67.46,32.72a34.78,34.78,0,1,0,34.85,34.73v0A34.78,34.78,0,0,0,67.46,32.72Zm.13,57.61a22.79,22.79,0,1,1-.12-45.58h.07a22.79,22.79,0,0,1,0,45.58Z"/><path d="M103.78,22.62a8.75,8.75,0,1,0,8.69,8.81A8.74,8.74,0,0,0,103.78,22.62Z"/></g></g></svg>