<svg xmlns="http://www.w3.org/2000/svg" viewBox="0 0 2229.62 2574.54"><defs><style>.cls-1{fill:#e6ac49;}.cls-2{fill:#e5ae4d;}.cls-3{fill:#e6ad4b;}.cls-4{fill:#e6ad4c;}.cls-5{fill:#e5ad4c;}.cls-6{fill:#e5ad4b;}.cls-7{fill:#e3b057;}.cls-8{fill:#e3b15a;}.cls-9{fill:#e3b058;}.cls-10{fill:#e3b056;}.cls-11{fill:#c39d58;}.cls-12{fill:#d7b476;}.cls-13{fill:#523e1a;}</style></defs><g id="Camada_2" data-name="Camada 2"><g id="LOGO_Imagem" data-name="LOGO Imagem"><polygon points="0 643.63 0 1930.91 1114.81 2574.54 2229.62 1930.91 2229.62 643.63 1114.81 0 0 643.63"/><path class="cls-1" d="M1116.26,203.42,1154,227.09c65,38,130.37,75.4,195.62,113Q1464.91,406.53,1580.19,473q168.61,97.28,337.19,194.63,58.29,33.6,116.84,66.74L2041,738l-1.06,26.83s-19.76-9.75-29.15-15.17q-170.38-98.29-340.6-196.94Q1515,463,1359.73,373.51q-119.64-69-239.28-138c-5.27-3-8.52-2.88-13.81.2Q964.59,318.28,822.2,400.28,647.89,500.92,473.53,601.51c-84.22,48.62-178.55,100.6-262.87,149v14.61c.44,67,.28,134,.15,201l-.06,11.21-24.29.11s-.07-4.12-.07-6.43c0-75.3.06-150.59-.21-225.88,0-6.3,3.71-8.46,7.72-10.79Q265,693.13,336.25,652.07q91.68-52.82,183.45-105.5Q669.13,460.35,818.47,374q113.37-65.46,226.8-130.83"/><path class="cls-1" d="M227.38,1550.35c28.67-10.79,56.23-24,81.07-41.9,62.23-44.72,113.12-99.21,141.76-171.67,9.81-24.82,13.53-50.42,3.34-76.47-10.84-27.71-32.42-43.74-59-53.88-29.15-11.13-59-9.82-89.54-5.37-46,6.7-85.23,27-121.38,54.86A94.48,94.48,0,0,0,161.78,1279c-1.68,2.57-4.42,5.36-2.08,8.29,2.05,2.57,5.09.58,7.52-.62,2.26-1.11,4.46-1.75,7.87.29-14.29,14.07-24.3,32.82-46.91,35.61a16.54,16.54,0,0,1-11.23,0c-18.51.26-23.93-24.4-18.31-39.35,11.9-31.66,35-53.94,62-72.47,27.87-19.11,58.52-32.25,90.87-42.29,44-13.65,88.93-19.79,134.48-15.28,43.41,4.3,83,18.92,110,56.61,19.79,27.67,23.39,59.11,20.24,91.66-5.2,53.85-29,99.87-61.78,141.82-47.86,61.23-107.69,107.4-178.47,138.9-35.86,16-73.57,27.81-113.29,27.29-28.51-.37-39.72-18-37.57-44.07,2.29-27.86,13-53.46,22.93-79,33.69-86.17,71.17-170.73,109.75-254.82,5.8-12.64,16.34-13.41,26.48-16.41,6.22-1.84,12.9-2.16,19.39-3.06,10.36-1.45,14.77,3.37,10.86,12.94-10.14,24.82-21.1,49.31-31.25,74.13q-45.88,112.15-91.36,224.49c-3.49,8.59-6.68,17.32-9.83,26-2.29,6.37.35,9.46,6.88,8.62,8.53-1.09,17-2.67,25.47-4C218.81,1553.26,223.41,1552.8,227.38,1550.35Z"/><path class="cls-1" d="M2018.35,1797.4c-.29-72.18.08-166-.46-238.21l12.11-.4c.34,0,12.36,0,12.36,0-.57,77.36-.42,174.45-.11,251.81,0,0-2.22,1.47-7.81,4.69q-132.17,76.15-264.24,152.48Q1596.28,2068,1422.28,2168.11q-151.27,87.16-302.39,174.62c-5.58,3.24-8.79,2.28-13.67-.55q-135-78.53-270.22-156.66-190.77-110.26-381.65-220.36-125.44-72.47-250.8-145.1c-5-2.88-13.62-8.69-13.62-8.69l0-26.2s45.28,25.77,67.87,38.73q122,70.06,243.76,140.71,132.5,76.58,264.94,153.21,157.79,91.26,315.57,182.51l32.39,17.85,22.72-12.95c91.28-53.42,183.19-105.77,274.77-158.68q173.9-100.44,347.63-201.14"/><path class="cls-1" d="M850.5,1417.42c-12.19,18.63-22.88,38.23-36.74,55.78-10.5,13.28-21.62,25.85-36.59,34.3-25.1,14.17-51.73,1.18-56.37-27.46-3.84-23.67.5-46.79,6.81-69.25A1260.93,1260.93,0,0,1,771.77,1282a63.83,63.83,0,0,1,5.69-10.94c6.36-9.84,14.12-12.78,22.33-8.82,12.92,6.25,15.49,12.54,11.61,25.42-13.89,46.09-30.19,91.47-40.94,138.49-1.62,7.09-3,14.2-2.62,21.52s3.49,8.56,9.18,4.21c8.58-6.58,15.11-15,21.15-23.82,29.64-43.14,58.05-87.06,79.21-135.12,5.78-13.14,9.22-27.3,15.34-40.43,7.57-16.25,21.95-22.07,37.9-24.93,8.53-1.53,14.14,6,11.79,15.53-5.78,23.42-15.15,45.69-22.7,68.55-11.69,35.37-21.47,71.2-23.51,108.67a54.07,54.07,0,0,0,.27,10.34c1.34,9.64,7.5,12.86,16.17,8.43,11.07-5.66,18.11-15.44,25.36-25.08,23.74-31.56,37.07-68,49.94-104.75,9.1-26,19-51.65,28.6-77.44,6.3-16.92,20.42-24.59,36.39-29,12.3-3.4,15.77,0,15.15,12.86-.72,15.07-7.61,28.45-12.29,42.42-.55,2.67.19,3.69,2.86,2.24,13.23-16.18,24.89-33.67,40.48-47.86,14.34-13.06,29.36-25.19,49.65-26.88s33.08,14.12,28.35,34c-6.43,27-17.91,52-29.13,77.12-5.43,12.18-13.37,16.13-23.53,13.76-9.64-2.25-15.44-11.24-16.4-23.49-1.1-14.09,6.18-25.88,10-39.39-5.93-.72-8,3.92-10.6,6.85-24.88,28.25-44.49,60.28-65,91.64a827.35,827.35,0,0,0-55.09,99.15c-9.53,20.16-10.81,20.83-33.33,18-6.41-.8-10.83,1.48-15.61,5.55-15.92,13.58-33.06,22.85-55.47,16.71-15.27-4.19-23.25-14.47-27-28.3-2.3-8.49-4-17.53-2.79-26.62,1.77-3.8.81-7.8.76-11.71C854,1416.13,852,1417.08,850.5,1417.42Z"/><path class="cls-1" d="M2103.66,1009.24a106.34,106.34,0,0,1-2.18,23.27c-9.42,17.43-24.88,27.1-43.23,32.23-10.85,3-19.16-6.33-16.61-17.47.43-1.9,1.85-4.37-.74-5.4a8.93,8.93,0,0,0-5.94.2c-25.91,10.08-48.78,24.85-67.8,45.21a173.1,173.1,0,0,0-17.63,21.48c-6.63,9.94-4,15,7.7,14.83,23.85-.36,47.49,2.08,71.15,4.34a78.24,78.24,0,0,1,33,10.68c20.35,12.17,26.29,32.36,16.68,54.29-11.32,25.81-32.34,42-55.09,56.65-26.8,17.29-55.35,28.71-87.88,27-14.71-.75-26.81-6.76-32.88-20.76-7-16.12-5.37-31.91,6.26-45.45,8.92-10.4,19.35-8.16,23.91,4.21,3.2,8.65,9.2,14.1,18.78,12.67,27.68-4.14,52.86-14.34,74-33.11,4-3.59,8.21-8.61,5.56-14.5-2.48-5.52-8.49-5.93-14.1-6.72-26.61-3.71-53.7-1.79-80.16-7.25-31.27-6.45-39.12-29.47-32.12-55.83s24.37-45.62,45-62.47c28-23,58.1-42.57,92.6-54.2,11.56-3.89,23.8-7,36.39-6C2094.09,988.36,2100.09,993.67,2103.66,1009.24Z"/><path class="cls-1" d="M1942.23,857.27c-3.34,24.27-11.67,49.08-20.68,73.59-7.58,20.58-15.25,41.3-27.46,59.77-10.43,15.8-13.77,15.12-31,5-5.49-3.23-6.86-8-5.41-14.15,9.78-41.15,23.69-81.05,37.32-121,6-17.59,24.06-21.75,39.07-19.45C1942.37,842.29,1942.29,849,1942.23,857.27Z"/><path class="cls-2" d="M1081.6,1817.64c0-9.65.12-19.3-.06-29-.09-4.87,1-7.9,6.78-7.75,10,.25,20,.18,30,0,4.37-.08,6.09,1.48,6.11,6,0,5.07-2.83,5.52-6.66,5.39-3.1-.1-6.2,0-9.31,0-10.43,0-14.91,6.8-11.19,16.42,1.2,3.11,3.48,2.87,5.8,2.93,4.13.11,8.28.19,12.41,0,4.58-.16,4.73,2.75,4.73,6.11s-.58,6.19-5,5.93c-2.4-.14-4.84.18-7.23,0-7-.61-11.44.12-11.27,9.5.15,8.69,3.37,10.8,11,10,3.75-.39,7.58.08,11.37-.09,4.09-.17,5.37,1.78,5.35,5.62s-1,5.8-5.24,5.74c-10.34-.14-20.68-.16-31,0-5,.08-6.68-2.14-6.6-6.88C1081.72,1837.64,1081.61,1827.64,1081.6,1817.64Z"/><path class="cls-3" d="M958.83,1854.44c-10.52.23-18.8-3.62-23.52-13.39-1.4-2.91-3.58-7.34.79-8.75,3.59-1.15,8.9-3.11,11.77,2.47.78,1.53,1.24,3.35,2.37,4.54,4,4.22,8.8,5.9,13.54,1.48s3.45-9.23-.66-13.47-9.77-4.75-14.56-7.36c-8.47-4.62-14.38-10.93-13.49-21.09.86-9.72,8-16,18.61-17.58,11.45-1.68,21.23,2.46,25.38,11.31,1.43,3.07,4.71,7.89-.16,9.74-3.65,1.4-9.77,3.47-12.4-2.87-1.92-4.64-4.7-7.93-10-6.71-3.3.76-6,2.75-6.35,7.06-.4,5.6,3.17,8,7.18,10.19s8.17,3.52,12,5.73c10.19,5.91,13.9,14.62,11.06,25.1C977.93,1850,970.82,1854.44,958.83,1854.44Z"/><path class="cls-4" d="M1108.17,719.18c0-10,.19-20-.08-30-.13-5,1.76-6.68,6.62-6.56,9.65.25,19.31.16,29,0,4.25,0,6.32,1.41,6.17,6-.14,4.13-2.13,5.39-5.84,5.3s-7.64.41-11.37-.08c-8.35-1.1-10.56,2.4-10.48,10.47.07,7.34,2.32,10.07,9.46,9.07,2-.29,4.13,0,6.2-.06,4.51-.21,8.11,0,7.92,6.31-.16,5.65-3.34,5.94-7.47,5.75-1.72-.08-3.47.15-5.17,0-7.26-.82-11.12.57-11,9.65.09,8.92,3.74,10.55,11.14,9.87,3.76-.35,7.58,0,11.37,0,4.05-.08,5.32,2,5.33,5.8,0,4-1.86,5.49-5.68,5.47-10-.08-20-.23-30,.07-5.42.16-6.2-2.6-6.13-7C1108.29,739.18,1108.17,729.18,1108.17,719.18Z"/><path class="cls-5" d="M869.12,1817.23c0-9.65.19-19.3-.08-28.93-.15-5.28,1.7-7.51,7.12-7.36,9.3.26,18.6.06,27.9.09,3.62,0,6.89.24,7,5.28.18,5.59-3.28,6-7.39,6-3.79,0-7.61.27-11.37-.06-6-.52-8.17,1.39-8.66,7.91-.75,9.81,2.87,12.6,12.11,11.79,3.64-.33,9.6-3.18,11,3.79,1.76,8.84-4.42,7.77-10.09,8.18-5.13.37-12.81-3.93-13,7.37-.16,9.25,2.13,13.48,11.89,12,3.36-.52,6.87-.06,10.32,0,3.91,0,5.39,2.15,5.28,6-.09,3.44-1.71,5.13-5,5.15q-16,.11-32,0c-5,0-5-3.58-5-7.19C869.14,1837.21,869.12,1827.22,869.12,1817.23Z"/><path class="cls-2" d="M1207.72,1843.21c6.73,0,12.23,0,17.73,0,3.56,0,6,1,6.16,5.19.17,4.51-2,6.14-6.28,6.11-10-.09-20,.06-30,0-9-.1-11.12-3.7-5.9-11.25,6.06-8.76,13-16.91,19.39-25.44,4-5.32,7-11.09,5.91-18.12-.51-3.22-1.79-6.12-5.23-7-3.73-.92-5.69,1.87-7.35,4.51-.89,1.42-.91,3.39-1.81,4.79-2.9,4.48-7.64,3.18-11.22,2.1-3.82-1.15-2.35-5.31-1.54-8.1,3.4-11.69,14.93-17.29,28.29-14,9.94,2.46,14.76,11.58,12.8,23.48-1.4,8.56-6.39,15.09-11.38,21.66C1213.76,1831.74,1209.56,1835.86,1207.72,1843.21Z"/><path class="cls-5" d="M1344.72,1854.47c-3.8,0-7.62.28-11.38-.08-3.16-.3-7.48,2-9.2-2.25s.1-8,2.87-11.45q9.36-11.64,18.49-23.48c3.66-4.76,5.77-10.12,5.41-16.29-.23-4.1-1.29-7.79-6-8.3-4.06-.45-6.42,2.34-7.18,6-.7,3.34-1.61,5.61-5.63,6.09-7.69.93-10.36-1.91-8-9.23,3.8-11.9,16.76-17.66,29.47-13.09,10.64,3.83,14.78,17,9.61,29.68-3.57,8.78-10.68,15.11-15.41,23.08-1.18,2-4,3.5-2.94,6.13,1.4,3.32,4.81,1.62,7.33,1.84,3.43.31,6.9.07,10.34.23s4.56,2.34,4.55,5.57-1.32,5.35-4.75,5.4c-5.86.1-11.73,0-17.59,0Z"/><path class="cls-6" d="M1319.39,719.21c0,10-.24,19.94.09,29.89.18,5.4-1.72,7.28-7.1,7.15-5.16-.12-7.5-1.88-7.47-7.25.14-19.58.17-39.17,0-58.75-.06-5.94,2.55-7.58,8.11-7.68,6.06-.11,6.55,3.09,6.46,7.78C1319.27,700,1319.4,709.59,1319.39,719.21Z"/><path class="cls-7" d="M1476.93,718c.55-5.75,3.87-9.12,10.51-8.91s10.22,4,9.74,10.34c-.45,6-4.28,10.2-10.64,10S1477,725.17,1476.93,718Z"/><path class="cls-8" d="M1534.92,1816.78c.38-6,3.65-9.44,10.43-9.39,6.3.06,9.83,3.45,9.91,9.45.09,6.33-3.78,10.73-10,10.88S1535,1824.22,1534.92,1816.78Z"/><path class="cls-9" d="M740.92,709c7,.21,10.47,3.5,10.49,10.22,0,6.18-3.43,9.83-9.19,10.24-6.49.45-10.63-3.8-10.92-9.86S734.47,709.31,740.92,709Z"/><path class="cls-10" d="M693.48,1818.34c-.77,5.85-4,10-10.61,9.42-5.67-.48-9.74-4.35-9.62-10.13.12-6,3.38-10.35,10.32-10.2S693.36,1811.33,693.48,1818.34Z"/><path class="cls-11" d="M1161.8,1342.88q0,18.09-.08,36.19C1158.22,1367,1159.26,1354.94,1161.8,1342.88Z"/><path class="cls-12" d="M227.38,1550.35c-3.48,4.05-8,4.77-12.95,4C218.54,1552.37,222.61,1550.23,227.38,1550.35Z"/><path class="cls-13" d="M1392.28,1389.4c-.27,2.06-1.15,4.7-3.34,3.54-2.58-1.36-1.28-3.93.48-5.77Z"/><path class="cls-1" d="M1853.83,1094.86c-3.62-11.82-14.53-21.06-26.52-20.71-9.92.29-19-.64-28.57-4.36-16.91-6.55-33,.42-46.53,10.09-60.49,43.21-96.51,101.52-105,175.87-2,17.3-27.61,51.18-44.6,57-7.7,2.64-12.81-.27-13.91-8.81a72.62,72.62,0,0,1,.64-23.71c5.33-26.26,12.22-52.11,19.72-77.85,25.21-86.59,57.48-170.68,89.56-254.85,7.22-18.93,15.92-37.36,20.64-57.18,2-8.53-4.22-15.84-12.32-14.22-15,3-27.79,9.28-35.42,23.84-14.73,28.12-26,57.69-37.06,87.33-15.58,41.88-30.52,84-45.51,126.1-2.29,6.43-5.42,9.8-12,5.86-11.78-7.06-23-2.1-33.55,2.19-37.05,15-65.16,41.59-89.47,72.34-26.63,33.67-46.47,71.08-51.82,114.12-2.5,20.13-14.6,31.75-27.92,43.68-4.81,4.31-10.63,7.09-17,4.32s-6.71-9.44-7.12-15.09c-.91-12.76.65-25.52,3.07-38,7.83-40.27,18.54-79.71,35.75-117.15,4.84-10.53.41-22-9.8-24.12-9.84-2.08-21.46-.21-27,6.55-8.52,10.39-14.91,9.4-26,5.26-20.66-7.67-40,.81-57.63,11.09-36.08,21-61,52.88-82,88-13,21.69-22.83,44.73-24.69,70.44a145.69,145.69,0,0,0-.08,36.2c-.24,12.68,4.52,23.71,12.42,33.1,18.5,22,44.7,23.69,69.57,4.1,22.36-17.61,40.23-39.32,55-63.65,1.82-3,2.53-7.15,6.71-8.55,2.89,2.63,1.52,5.91,1.76,8.8,3.73,44.67,38.69,62.53,75.9,40.91a88.68,88.68,0,0,0,23.36-20c4.68-5.6,7.83-6.47,13.81-1.33,8.13,7,17.56,9,28.83,5.9,17.14-4.74,31.08-14.07,43.9-25.7,20.87-18.93,36.92-41.62,51.54-65.5,2-3.35,2.92-8.57,8.65-8.83-1,11.17-2.49,22.08-2.93,33-1.37,34.53,17.36,55.08,53.3,45.83,20.49-5.27,35-18.26,47.59-34,5.08-6.35,8.11-7.21,14.05-.78,9.1,9.83,21.21,13.45,34.6,12.67,25.29-1.47,44.69-15.09,61.79-31.8,46.47-45.39,76.23-100.53,91.41-163.44C1856.5,1125.25,1858.46,1110,1853.83,1094.86Zm-526.92,114.71c-25.06,58.57-55.86,113.54-100.48,159.81a41.33,41.33,0,0,1-4.41,4.37c-3.66,2.76-6.16,8.07-12,6.32-3.36-1-5.29-6.62-5.09-16.34,2.67-22.71,11.82-46.1,23.27-68.51,16.95-33.15,38.7-62.51,71.13-82.36,6.67-4.09,14.08-7,21.28-10.19,2.12-.93,5.07-1.53,6.91.25C1329.51,1204.89,1327.8,1207.48,1326.91,1209.57Zm237.58-42.66c-26,53.64-55.3,105.27-92.66,152-2.55,3.19-5.84,5.79-8.72,8.73s-6,5.06-10,3.57c-4.94-1.8-3.79-6.79-5-10.63a197.93,197.93,0,0,1,16.41-56.22c20.25-44.11,49.44-80.58,92.76-104.32,3.15-1.72,6.71-5.78,10-2.2C1570,1160.73,1565.91,1164,1564.49,1166.91Zm240-31.88c-2.11,15.89-8.81,33.91-16.57,51.56-13.61,31-28.83,60.94-53.55,84.91-6.18,6-12.75,11.57-20.24,15.82-11.15,6.33-19.61,2.34-22-10.32-4-21.42,1-41.76,8.48-61.58,15.23-40.2,37.18-75.81,71.87-102.37,5.44-4.17,11.45-10.77,16.29,1.06.61,1.47,3.37,2.32,5.29,2.94C1804.76,1120.51,1804.78,1120.45,1804.45,1135Z"/><path class="cls-1" d="M675.19,1285.73c-3.59.54-6.88.8-9.84-1.41-13.17-9.84-26.91-6.17-40-.74-28.55,11.81-48.92,33.76-67.35,57.46-29.78,38.28-49.47,80.77-51.6,129.83.59,6.81-1.63,13.25.05,19.86s2.08,13.61,3.94,20.18c5.62,19.89,24,37.12,48.28,35.45,17.53-1.2,32.34-8.58,46-18.73,28-20.85,49.11-47.73,66.45-77.76,22.16-38.37,41-77.94,44-123.16C716.7,1303,705.5,1281.15,675.19,1285.73Zm-11.72,60.65c-3.08,17.33-8.83,33.94-16,50-14.67,32.73-30.4,64.79-57.74,89.39A96.17,96.17,0,0,1,573.25,1498c-11.33,6.5-19.22,3.3-22.35-9.45-1.55-6.32-2.68-12.86-1.48-19.75,10.35-59.59,36.38-110.11,85.68-147.3,5-3.8,8.23-4.19,11.15,1.76,1.29,2.64,3.58,4.66,6.39,4.74C666.23,1328.36,665,1337.85,663.47,1346.38Z"/><path class="cls-3" d="M1085,724.06c-3.61-4.95-4.08-7.23-.51-12.38,7.54-10.91,1.08-25.13-11.91-28-8.53-1.91-17.2-.52-25.8-.92-4.89-.22-5.55,2.74-5.51,6.66.09,10,0,20,0,30V730.8c0,28.05,1.09,29,29.28,25.19C1085.86,753.93,1094.13,736.61,1085,724.06Zm-22.66-30.15c6.72.4,10.1,4,10.12,10.32,0,6-3.25,9-9.66,9.34-8.48.49-7.14-5.05-7.09-10.08C1055.75,698.85,1054.47,693.44,1062.31,693.91Zm.67,51c-9.43.72-6.94-6.11-7.29-11.12-.48-5.63-.46-10.57,7.59-9.93,6.46.52,10.21,2.66,10.19,10S1070,744.4,1063,744.93Z"/><path class="cls-3" d="M881.61,723.57c-3.51-4.67-3.89-6.62-.44-11.49,8-11.24,1.44-26.13-12.24-28.38-7.74-1.27-15.79-.57-23.68-1-5.38-.32-7.33,1.86-7.17,7.21.3,9.65.09,19.31.09,29q0,6.21,0,12.41c0,26.42,0,26.42,26.59,24.89.69,0,1.38,0,2.06-.09C882.93,754.19,891.37,736.53,881.61,723.57Zm-29-20.2c.53-3.52-2.06-9.53,6-9.45,6.62.06,10.43,3.28,10.7,9.72.28,6.6-3.18,9.66-10.08,9.93C851.41,713.87,852.56,708.82,852.61,703.37Zm17.79,31.29c-.39,7.67-4.55,10-11.28,10.25-8.9.32-5.87-6.36-6.46-9.9-.21-6.2-1.15-11.83,7.24-11.07C866.63,724.55,870.79,726.75,870.4,734.66Z"/><path class="cls-5" d="M1053.9,1801.92c-1.94-10.23-10.37-18.83-20.62-20.26-6.1-.85-12.38-.27-18.55-.7-5.83-.41-8,1.93-7.82,7.76.31,10,.09,20,.09,30,0,5.86-.09,11.72,0,17.58.37,21-3.38,18,19,18.12,16.71.07,25.73-8.28,28.59-24.77A76.61,76.61,0,0,0,1053.9,1801.92Zm-16.33,35.25c-1.7,4.85-7.44,6.35-12.23,5.32-4.56-1-2.57-5.71-2.73-8.84-.29-5.5-.08-11-.09-16.54,0-4.83-.28-9.68.1-14.47.26-3.39-2.18-8.61,3.22-9.5,4.69-.77,10.51.29,12.05,5.66C1041.53,1811.49,1042,1824.59,1037.57,1837.17Z"/><path class="cls-3" d="M1016.82,738.2c-3.37-6.65-5-12,1.31-19.12,6.48-7.26,5.91-17.58,1.33-26.26-4.25-8.05-12.11-10.55-21-10.16-5.49.24-11,.26-16.51,0-5-.27-6.59,1.83-6.46,6.67.27,10,.09,20,.08,29.94,0,9.64.2,19.28-.08,28.91-.16,5.28.66,8.35,7.13,8.14,6.15-.21,7.73-3,7.32-8.38a65.72,65.72,0,0,1,0-10.31c.23-2.78-1.59-6.6,2.82-7.79s6,2.08,7.3,5.38c2.31,5.71,4.37,11.54,7,17.11,3,6.42,9.36,4.57,13.58,3.18,4.87-1.61.27-5.83-.26-8.76S1018.22,741,1016.82,738.2Zm-20.23-20.59c-10,.17-5.65-7.06-6.88-11.66,1.49-4.31-3.31-12,6.55-11.89,7.81.07,11.18,4.72,11.21,11.8C1007.5,712.78,1004.89,717.46,996.59,717.61Z"/><path class="cls-3" d="M1282.87,746.82c-.8-3.28-2.57-6.34-4-9.45-3-6.5-3.51-11.42,1.91-18.3,10.43-13.25,3.46-35.94-16.46-36.3-6.53-.12-13.08.11-19.61-.11-4.82-.16-6.81,1.74-6.71,6.66.22,10,.07,19.95.06,29.93,0,9.3.14,18.59-.06,27.88-.11,5.33.12,9.14,7.39,9.23s7.89-3.31,7.5-8.86a95.51,95.51,0,0,1,0-11.35c.13-2.5-1-5.84,3.21-6.4,3.38-.45,4.75,1.34,5.88,4.32,2.32,6.08,5,12,7.73,17.94,3.23,7.14,10,4.85,14.29,3.31C1288.75,753.61,1283.58,749.68,1282.87,746.82Zm-23.16-29.18c-10.89.42-5.48-7.78-7.15-12.33,1.55-4.12-3.18-11.46,6.13-11.3,7.34.11,11.52,3.2,11.32,11.32C1269.82,712.47,1268.08,717.32,1259.71,717.64Z"/><path class="cls-3" d="M837.74,1793.57c-9-15.12-23.85-12.38-37.8-12.52-4.88,0-5.47,3-5.44,6.84.08,9.66,0,19.33,0,29,0,10-.06,20,0,30,0,2.63-.68,5.53,2.65,7.15,8.25,4,31.53-1.06,37.65-8.31C844.19,1834.71,845.75,1807.09,837.74,1793.57Zm-12.18,42.34c-1.54,5.49-7.08,7.62-12.45,7-6.41-.78-3.34-6.43-3.69-10-.5-5.09-.12-10.27-.12-15.41s-.31-10.3.11-15.41c.27-3.26-2.4-8.39,3.47-9.13,5.34-.67,11,.72,12.67,6.43A66.52,66.52,0,0,1,825.56,1835.91Z"/><path class="cls-3" d="M957.74,749.43c-6.53-20.57-13.35-41-19.54-61.71-1.56-5.22-4.83-4.92-9.35-5-4.14-.61-6.45,1.36-7.9,6.34-5.74,19.73-12.07,39.29-18.1,58.93-.87,2.84-4.56,7.18,1.47,7.81,4.35.45,11.24,3.42,12.59-4.52,1.18-7,4-9.86,11.5-9.45,7.27.39,13.19-.1,14.44,9.79.95,7.51,8.22,4.32,12.79,4.18C959.81,755.65,958.56,752,957.74,749.43Zm-28-19.33c-2.7-.57-7.82.75-5.94-4.21,2.31-6.1,0-17.47,6.05-17.45s3.65,11.44,5.92,17.59C937.58,731,932.32,729.46,929.72,730.1Z"/><path class="cls-3" d="M1393,747.52c-6.18-19.28-12.4-38.54-18.35-57.89-1.5-4.89-3.56-7.51-9.27-7.07-5.26.4-7.55,2.22-9.07,7.56-5.43,19.15-10.92,38.35-17.84,57-3.65,9.85.81,9.06,7.54,9.15,6,.08,6.76-4,7.35-8,1.29-8.62,7.75-6,12.78-6.23s10.84-1.25,11.49,6.57c.47,5.53,3.72,7.85,9.38,7.43C1394.16,757.18,1394.82,753.37,1393,747.52Zm-26.33-17.6c-2.56-.35-7.8,1.89-7-2.7,1.08-6.63.45-14.33,7.34-20.52,1.76,7.07,3.4,13.18,4.78,19.34C1372.7,730.56,1369.16,730.27,1366.62,729.92Z"/><path class="cls-3" d="M1219.89,748c-6.53-19.48-12.58-39.12-18.44-58.82-1.44-4.84-3.72-6.53-8.68-6.61s-7.89,1.71-9.26,6.22c-6,19.67-11.62,39.46-18,59-2.55,7.81.54,8.54,7.08,8.55,5.94,0,6.59-3.91,7.59-7.87,2.23-8.89,9.38-5.8,15.09-6.46,5.25-.61,8.25.94,9.25,6.63.78,4.48,2.63,8.9,8.7,7.42C1219.74,756.75,1222.29,755.14,1219.89,748Zm-26.38-17.85c-3.89-.11-8,.22-7-5.65s2.32-11.68,6.56-18.72c2.17,7.27,3.82,12.88,5.54,18.47C1200.09,729,1197.78,730.24,1193.51,730.12Z"/><path class="cls-6" d="M1430.7,1791.78c-6-14-24.82-14.69-33.35-2-5.78,8.61-5,18.31-5,29.8-.32,5.68-.49,13.37,2.18,20.53,2.88,7.72,7.75,13.74,17,14.29,8.2.48,15.68-1.66,18.93-9.53C1437.64,1827.4,1438.14,1809.22,1430.7,1791.78Zm-11.56,45.3c-.64,3-1.9,5.36-5,5.66-3.76.37-5.2-2.42-6.39-5.48-2.46-6.35-1-13-1.53-19.42.49-6.15-.84-12.4,1.11-18.46,1.07-3.34,2.29-6.9,6.6-6.64,3.69.22,4.79,3.28,5.41,6.53A92.79,92.79,0,0,1,1419.14,1837.08Z"/><path class="cls-4" d="M1298.26,1817.5c0-5.16.51-10.38-.1-15.46-1.46-12.24-8.91-20.11-19.1-21-10.51-.88-18.73,4.54-21.24,15.35a89.89,89.89,0,0,0-.06,42c2.13,8.71,7.47,15.47,17.65,16s16.76-4,20.68-13.52C1299.28,1833.2,1298,1825.33,1298.26,1817.5Zm-15.85,20.81c-1.13,2.23-2.26,4.34-5.05,4.47-3.36.15-5.09-2.3-5.65-5a97.71,97.71,0,0,1-.18-39.76c.55-2.75,2.28-5.24,5.45-5.33s4.35,2.51,5.64,5.09c3.3,6.57,1,13.54,2,19.57C1284,1824.84,1285.73,1831.81,1282.41,1838.31Z"/></g></g></svg>