<svg version="1.2" xmlns="http://www.w3.org/2000/svg" viewBox="0 0 107 28" width="107" height="28">
	<title>setaDown-svg</title>
	<style>
		.s0 { fill: #cccccc } 
	</style>
	<g id="Camada_2">
		<g id="Camada_1-2">
			<path id="Layer" class="s0" d="m0 2.3q0-0.4 0.2-0.7 0.2-0.3 0.5-0.5 0.4-0.2 0.7-0.3 0.4 0 0.8 0.2 0.4 0.2 0.8 0.3 0.4 0.2 0.7 0.4 0.4 0.2 0.8 0.4 0.4 0.1 0.8 0.3c15 7.2 30 14.3 45 21.6q0.7 0.4 1.6 0.6 0.9 0.2 1.7 0.2 0.9 0 1.8-0.2 0.8-0.3 1.6-0.7c15-7.3 30-14.3 45-21.5q0.4-0.2 0.7-0.4 0.4-0.2 0.8-0.3 0.4-0.2 0.7-0.4 0.4-0.1 0.8-0.3c0.8-0.3 1.8-0.1 1.9 0.9q0.1 0.2 0 0.5 0 0.2-0.1 0.4-0.1 0.2-0.2 0.4-0.2 0.2-0.3 0.3-0.4 0.2-0.8 0.4-0.3 0.2-0.7 0.4-0.4 0.2-0.8 0.4-0.3 0.1-0.7 0.3c-15.3 7.3-30.6 14.5-45.8 22q-0.9 0.5-1.9 0.8-1 0.2-2 0.2-1 0-2-0.2-1-0.3-1.9-0.8c-15.4-7.5-30.8-14.8-46.3-22.2-1.2-0.6-2.8-0.9-3.4-2.5z"/>
		</g>
	</g>
</svg>