<svg xmlns="http://www.w3.org/2000/svg" viewBox="0 0 635.37 638.11"><g id="Camada_2" data-name="Camada 2"><g id="Camada_1-2" data-name="Camada 1"><path d="M620.22,222.78C577.93,97.39,489.93,23,358.48,3.34c-72.55-10.8-141,4.82-203.55,43C9.15,135.34-39.89,320.5,42.19,469.73a12.16,12.16,0,0,1,1.18,10C28.91,532.11,14.65,584.49,0,638.11c2.8-.63,4.69-1,6.54-1.48q77.9-20.28,155.72-40.9c3.45-.91,6.24-1,9.45.71a306.84,306.84,0,0,0,139.87,36.24c77.49,1.37,146.35-22.71,206.82-71.25C617.52,481.78,660.81,343.08,620.22,222.78ZM422.41,557.59c-82.25,35.48-163,28.35-240.39-16.54-4.77-2.76-8.84-3.55-14.18-2.11-30.24,8.19-60.58,16-92,24.3,8.4-30.79,16.4-60.6,24.76-90.31a14.16,14.16,0,0,0-2-12.81C67.45,412,53,359.17,56.43,302.05c4.32-72,33.68-132.55,87.12-181C181.93,86.25,227,64.73,278.06,56.94c143.71-21.92,268,73,296.41,200.51C602.47,383.31,540.64,506.6,422.41,557.59Z"/><path d="M465.34,383.87c-1.58-.77-3.18-1.53-4.77-2.29-16.93-8.11-33.75-16.35-50.82-24.11-10.06-4.58-13.55-3.12-20.28,5.52-7.34,9.41-15.05,18.54-22.51,27.88-4.31,5.39-9.39,6.67-15.85,4.09-47.09-18.81-83.21-50.25-109-93.81-3.42-5.79-2.93-10.45,1.33-15.64,6.58-8,12.55-16.55,18.83-24.83,4.3-5.69,4.54-11.4,1.66-18-7.83-18-15.57-36.07-22.57-54.39-4.72-12.34-11.14-20.8-25.55-17.15-14.23-2.69-24.67,2.74-33.79,13-24.21,27.15-29.07,58.15-18.94,92.15,7.25,24.36,21.57,44.86,36.67,64.81,39.59,52.33,86.93,94.5,150.38,116.14,22.19,7.57,44.1,13.51,68,10.19,30.81-4.27,56.09-28.24,60.34-58.85C480.67,392.73,479.7,390.87,465.34,383.87Z"/></g></g></svg>