<svg xmlns="http://www.w3.org/2000/svg" viewBox="0 0 130.11 90.86"><g id="Camada_2" data-name="Camada 2"><g id="Camada_1-2" data-name="Camada 1"><g id="Camada_1-2-2" data-name="Camada 1-2"><path d="M0,48.36V42.51a.34.34,0,0,0,.05-.14c0-.54.05-1.09.07-1.64l.06-2.22.06-1.87c0-1,.09-1.9.13-2.85,0-.78.08-1.56.13-2.34.06-.93.12-1.87.19-2.81s.15-2.06.26-3.09c.15-1.52.32-3,.5-4.56.2-1.73.5-3.45.85-5.15a21.47,21.47,0,0,1,1-3.5A16.44,16.44,0,0,1,6.91,6.86a16.19,16.19,0,0,1,7.27-4.21A36.06,36.06,0,0,1,19,1.79c1.64-.2,3.29-.35,4.94-.51.8-.08,1.6-.14,2.4-.19l3-.16L31.53.77,34.09.64,36.87.51,40.35.39,42.19.32,44.38.26,46.69.2,49.51.13,52.87.07,57.19,0H74.43c1.27,0,2.31,0,3.46.06l3.39.06,2.63.07,2.76.06,2.48.07h.92l2.11.1,2,.07h.76l1.74.1,2.09.09,2.52.17c.75,0,1.5.08,2.25.14q1.5.11,3,.24c.82.07,1.65.12,2.46.22,1.57.19,3.14.4,4.71.62a18.74,18.74,0,0,1,3.29.86,16.18,16.18,0,0,1,7.06,4.73,17.09,17.09,0,0,1,2.55,4,20,20,0,0,1,1.4,4.73c.25,1.32.47,2.64.65,4,.22,1.58.4,3.16.57,4.74.11,1,.17,1.92.25,2.87,0,.39.05.78.08,1.17,0,.72.12,1.43.17,2.15s.09,1.45.12,2.18c0,1,.09,1.9.13,2.84,0,.54.05,1.08.07,1.62,0,.7,0,1.39.06,2.09v13c0,.7-.07,1.39-.1,2.09s0,1.22-.08,1.83-.07,1.35-.11,2,0,1.12-.09,1.67c-.07,1-.15,1.94-.23,2.91s-.12,1.7-.22,2.55c-.17,1.51-.33,3-.55,4.52s-.46,2.88-.73,4.31a20.69,20.69,0,0,1-.82,3.09A16.34,16.34,0,0,1,114.4,88.59c-1,.17-2,.33-3.06.46l-3.08.35-1.8.16-2.74.22-1.52.09L99.83,90l-1.58.08-2.12.11-1.8.07-2.63.12-1.7.06-2,.07-2,.06-2.51.06-2.69.07c-1.15,0-2.3,0-3.46.06H73.63l-.27.06H56.94l-.24-.06-4.28-.06-3.36-.06-2.76-.05L44,90.57l-2.12-.07L40,90.44l-3.42-.13c-.93,0-1.85-.08-2.78-.12l-2.53-.13-2.2-.13-2.9-.19-2.43-.19c-1.11-.1-2.21-.19-3.31-.32-1.43-.18-2.86-.37-4.29-.59a16.48,16.48,0,0,1-9-4.46,15.27,15.27,0,0,1-1.76-2,16.11,16.11,0,0,1-2.66-5.61,52.87,52.87,0,0,1-1.24-6.85C1.19,67.83,1,66,.83,64.12c-.08-.8-.13-1.6-.19-2.4,0-.44-.06-.88-.08-1.33C.5,59.57.44,58.75.39,57.93a12.39,12.39,0,0,0-.07-1.61c0-.83-.09-1.67-.12-2.5S.14,51.93.12,51L.06,48.66C.05,48.56,0,48.46,0,48.36ZM52.06,65,85.9,45.55l-.31-.19L57.7,29.2l-5.27-3.05c-.12-.06-.21-.18-.37-.14Z"/></g></g></g></svg>